<svg xmlns="https://www.w3.org/2000/svg" viewBox="0 0 24 24"><g fill="currentColor"><path d="M17.004 10.407c.138.435-.216.842-.672.842h-3.465a.75.75 0 0 1-.65-.375l-1.732-3c-.229-.396-.053-.907.393-1.004a5.25 5.25 0 0 1 6.126 3.537M8.12 8.464c.307-.338.838-.235 1.066.16l1.732 3a.75.75 0 0 1 0 .75l-1.732 3c-.229.397-.76.5-1.067.161A5.23 5.23 0 0 1 6.75 12a5.23 5.23 0 0 1 1.37-3.536m2.758 8.666c-.447-.098-.623-.608-.394-1.004l1.733-3.002a.75.75 0 0 1 .65-.375h3.465c.457 0 .81.407.672.842a5.25 5.25 0 0 1-6.126 3.539"/><path fill-rule="evenodd" d="M21 12.75a.75.75 0 1 0 0-1.5h-.783a8 8 0 0 0-.237-1.357l.734-.267a.75.75 0 1 0-.513-1.41l-.735.268a8 8 0 0 0-.689-1.192l.6-.503a.75.75 0 1 0-.964-1.149l-.6.504a8.3 8.3 0 0 0-1.054-.885l.391-.678a.75.75 0 1 0-1.299-.75l-.39.676a8 8 0 0 0-1.295-.47l.136-.77a.75.75 0 0 0-1.477-.26l-.136.77a8.4 8.4 0 0 0-1.377 0l-.136-.77a.75.75 0 1 0-1.477.26l.136.77q-.673.183-1.294.47l-.39-.676a.75.75 0 0 0-1.3.75l.392.678a8.3 8.3 0 0 0-1.054.885l-.6-.504a.75.75 0 1 0-.965 1.149l.6.503a8 8 0 0 0-.689 1.192L3.8 8.216a.75.75 0 1 0-.513 1.41l.735.267a8 8 0 0 0-.238 1.356h-.783a.75.75 0 0 0 0 1.5h.783q.063.697.238 1.356l-.735.268a.75.75 0 0 0 .513 1.41l.735-.268q.296.627.69 1.191l-.6.504a.75.75 0 0 0 .963 1.15l.601-.505q.49.486 1.054.885l-.392.68a.75.75 0 0 0 1.3.75l.39-.679q.622.289 1.294.471l-.136.77a.75.75 0 0 0 1.477.261l.137-.772a8.3 8.3 0 0 0 1.376 0l.136.772a.75.75 0 1 0 1.477-.26l-.136-.771a8 8 0 0 0 1.294-.47l.391.677a.75.75 0 0 0 1.3-.75l-.393-.679a8.3 8.3 0 0 0 1.054-.885l.601.504a.75.75 0 0 0 .964-1.15l-.6-.503q.392-.564.69-1.191l.735.267a.75.75 0 1 0 .512-1.41l-.734-.267q.173-.66.237-1.356zm-2.657-3.06l-.016-.05a6.7 6.7 0 0 0-1.174-2.002a6.8 6.8 0 0 0-1.82-1.51A6.7 6.7 0 0 0 12 5.248a7 7 0 0 0-1.225.11a6.7 6.7 0 0 0-2.15.793A6.8 6.8 0 0 0 5.673 9.64a1 1 0 0 1-.036.098A6.7 6.7 0 0 0 5.251 12a6.74 6.74 0 0 0 3.366 5.842l.009.005l.02.012a6.7 6.7 0 0 0 2.159.785l.024.004l.021.005a6.8 6.8 0 0 0 2.346-.008a6.7 6.7 0 0 0 2.205-.812a6.8 6.8 0 0 0 1.762-1.484l.009-.01l.009-.01a6.7 6.7 0 0 0 1.18-2.065c.253-.708.39-1.47.39-2.264a6.7 6.7 0 0 0-.408-2.309" clip-rule="evenodd"/></g></svg>