<svg xmlns="http://www.w3.org/2000/svg" viewBox="0 0 24 24"><path fill="none" stroke="currentColor" stroke-linecap="round" stroke-linejoin="round" stroke-width="1.5" d="M15 19.128a9.4 9.4 0 0 0 2.625.372a9.3 9.3 0 0 0 4.121-.952q.004-.086.004-.173a4.125 4.125 0 0 0-7.536-2.32M15 19.128v-.003c0-1.113-.285-2.16-.786-3.07M15 19.128v.106A12.3 12.3 0 0 1 8.624 21c-2.331 0-4.512-.645-6.374-1.766l-.001-.109a6.375 6.375 0 0 1 11.964-3.07M12 6.375a3.375 3.375 0 1 1-6.75 0a3.375 3.375 0 0 1 6.75 0m8.25 2.25a2.625 2.625 0 1 1-5.25 0a2.625 2.625 0 0 1 5.25 0"/></svg>