<?xml version="1.0" encoding="UTF-8" standalone="no"?>
<svg
   xmlns:dc="http://purl.org/dc/elements/1.1/"
   xmlns:cc="http://creativecommons.org/ns#"
   xmlns:rdf="http://www.w3.org/1999/02/22-rdf-syntax-ns#"
   xmlns:svg="http://www.w3.org/2000/svg"
   xmlns="http://www.w3.org/2000/svg"
   xmlns:sodipodi="http://sodipodi.sourceforge.net/DTD/sodipodi-0.dtd"
   xmlns:inkscape="http://www.inkscape.org/namespaces/inkscape"
   width="14"
   height="14"
   viewBox="0 0 14 14"
   version="1.1"
   id="svg3807"
   sodipodi:docname="gist-secret.svg"
   inkscape:version="0.92.2 2405546, 2018-03-11">
  <metadata
     id="metadata3813">
    <rdf:RDF>
      <cc:Work
         rdf:about="">
        <dc:format>image/svg+xml</dc:format>
        <dc:type
           rdf:resource="http://purl.org/dc/dcmitype/StillImage" />
        <dc:title></dc:title>
      </cc:Work>
    </rdf:RDF>
  </metadata>
  <defs
     id="defs3811" />
  <sodipodi:namedview
     pagecolor="#ffffff"
     bordercolor="#666666"
     borderopacity="1"
     objecttolerance="10"
     gridtolerance="10"
     guidetolerance="10"
     inkscape:pageopacity="0"
     inkscape:pageshadow="2"
     inkscape:window-width="1853"
     inkscape:window-height="1053"
     id="namedview3809"
     showgrid="false"
     inkscape:zoom="14.75"
     inkscape:cx="7"
     inkscape:cy="8"
     inkscape:window-x="67"
     inkscape:window-y="0"
     inkscape:window-maximized="1"
     inkscape:current-layer="svg3807" />
  <path
     d="m 8.0677966,9.720339 1,3.5 h -4 l 1,-3.5 -0.75,-1.5 h 3.5 z m 2.0000004,-4.5 H 4.0677966 l -2,1 H 12.067797 Z m -1.0000004,-4 -2,1 -2,-1 -1,3 h 6.0000004 z m 4.0300004,7.75 -3.03,-0.75 1,2 -2.0000004,3 h 3.2200004 c 0.45,0 0.86,-0.31 0.97,-0.75 l 0.56,-2.28 c 0.14,-0.53 -0.19,-1.08 -0.72,-1.22 z m -9.0300004,-0.75 -3.03,0.75 c -0.52999999,0.14 -0.85999999,0.69 -0.71999999,1.22 l 0.56,2.28 c 0.11,0.44 0.51999999,0.75 0.96999999,0.75 h 3.22 l -2,-3 z"
     id="path3805"
     inkscape:connector-curvature="0"
     style="fill-rule:evenodd" />
</svg>
