<?xml version="1.0" encoding="UTF-8" standalone="no"?>
<svg
   xmlns:dc="http://purl.org/dc/elements/1.1/"
   xmlns:cc="http://creativecommons.org/ns#"
   xmlns:rdf="http://www.w3.org/1999/02/22-rdf-syntax-ns#"
   xmlns:svg="http://www.w3.org/2000/svg"
   xmlns="http://www.w3.org/2000/svg"
   xmlns:sodipodi="http://sodipodi.sourceforge.net/DTD/sodipodi-0.dtd"
   xmlns:inkscape="http://www.inkscape.org/namespaces/inkscape"
   width="14"
   height="14"
   viewBox="0 0 14 14"
   version="1.1"
   id="svg3807"
   sodipodi:docname="gist-secret.svg"
   inkscape:version="0.92.2 2405546, 2018-03-11">
  <metadata
     id="metadata3813">
    <rdf:RDF>
      <cc:Work
         rdf:about="">
        <dc:format>image/svg+xml</dc:format>
        <dc:type
           rdf:resource="http://purl.org/dc/dcmitype/StillImage" />
        <dc:title />
      </cc:Work>
    </rdf:RDF>
  </metadata>
  <defs
     id="defs3811" />
  <sodipodi:namedview
     pagecolor="#ffffff"
     bordercolor="#666666"
     borderopacity="1"
     objecttolerance="10"
     gridtolerance="10"
     guidetolerance="10"
     inkscape:pageopacity="0"
     inkscape:pageshadow="2"
     inkscape:window-width="1853"
     inkscape:window-height="1026"
     id="namedview3809"
     showgrid="false"
     inkscape:zoom="14.75"
     inkscape:cx="-6.2881356"
     inkscape:cy="8"
     inkscape:window-x="67"
     inkscape:window-y="27"
     inkscape:window-maximized="1"
     inkscape:current-layer="svg3807" />
  <path
     d="m 8.0677966,9.960452 1,4.073446 h -4 l 1,-4.073446 -0.75,-1.7457627 h 3.5 z M 10.067797,4.7231638 H 4.0677966 l -2,1.1638418 H 12.067797 Z m -1.0000004,-4.65536717 -2,1.16384187 -2,-1.16384187 -1,3.49152537 h 6.0000004 z m 4.0300004,9.01977397 -3.03,-0.8728813 1,2.3276837 -2.0000004,3.491525 h 3.2200004 c 0.45,0 0.86,-0.360791 0.97,-0.872881 l 0.56,-2.65356 c 0.14,-0.6168355 -0.19,-1.2569485 -0.72,-1.4198864 z m -9.0300004,-0.8728813 -3.03,0.8728813 C 0.50779661,9.2505085 0.17779661,9.8906215 0.31779661,10.507457 l 0.56,2.65356 c 0.11,0.51209 0.51999999,0.872881 0.96999999,0.872881 h 3.22 l -2,-3.491525 z"
     id="path3805"
     inkscape:connector-curvature="0"
     style="fill-rule:evenodd;stroke-width:1.07881498;fill:#333333;fill-opacity:1" />
</svg>
