<?xml version="1.0" encoding="UTF-8" standalone="no"?>
<svg
   xmlns:dc="http://purl.org/dc/elements/1.1/"
   xmlns:cc="http://creativecommons.org/ns#"
   xmlns:rdf="http://www.w3.org/1999/02/22-rdf-syntax-ns#"
   xmlns:svg="http://www.w3.org/2000/svg"
   xmlns="http://www.w3.org/2000/svg"
   xmlns:sodipodi="http://sodipodi.sourceforge.net/DTD/sodipodi-0.dtd"
   xmlns:inkscape="http://www.inkscape.org/namespaces/inkscape"
   width="14"
   height="14"
   viewBox="0 0 14 13.999999"
   version="1.1"
   id="svg4"
   sodipodi:docname="mail-read.svg"
   inkscape:version="0.92.4 5da689c313, 2019-01-14">
  <metadata
     id="metadata10">
    <rdf:RDF>
      <cc:Work
         rdf:about="">
        <dc:format>image/svg+xml</dc:format>
        <dc:type
           rdf:resource="http://purl.org/dc/dcmitype/StillImage" />
        <dc:title></dc:title>
      </cc:Work>
    </rdf:RDF>
  </metadata>
  <defs
     id="defs8" />
  <sodipodi:namedview
     pagecolor="#ffffff"
     bordercolor="#666666"
     borderopacity="1"
     objecttolerance="10"
     gridtolerance="10"
     guidetolerance="10"
     inkscape:pageopacity="0"
     inkscape:pageshadow="2"
     inkscape:window-width="1853"
     inkscape:window-height="1026"
     id="namedview6"
     showgrid="false"
     fit-margin-top="0"
     fit-margin-left="0"
     fit-margin-right="0"
     fit-margin-bottom="0"
     inkscape:zoom="41.7193"
     inkscape:cx="1.2950002"
     inkscape:cy="8.9917357"
     inkscape:window-x="67"
     inkscape:window-y="27"
     inkscape:window-maximized="1"
     inkscape:current-layer="svg4" />
  <path
     d="M 6,4.681961 H 4 V 3.7501572 H 6 Z M 9,5.6137648 H 4 V 6.5455689 H 9 Z M 14,5.1664993 V 13.068197 C 14,13.580688 13.55,14 13,14 H 1 C 0.45,14 0,13.580688 0,13.068197 V 5.1664993 C 0,4.8590038 0.16,4.5794626 0.42,4.4117379 L 2,3.3587995 V 2.8183533 C 2,2.3058613 2.45,1.8865494 3,1.8865494 H 4.2 L 7,0.02294166 9.8,1.8865494 H 11 c 0.55,0 1,0.4193119 1,0.9318039 v 0.5404462 l 1.58,1.0529384 C 13.85,4.5887807 14,4.8590038 14,5.1664993 Z M 3,7.0114709 7,9.3409805 11,7.0114709 V 2.8183533 H 3 Z M 1,12.602294 5.5,9.8068825 1,7.0114709 Z M 12,13.068197 7,10.272784 2,13.068197 Z M 13,7.0114709 8.5,9.8068825 13,12.602294 Z"
     id="path2"
     style="fill:#333333;fill-opacity:1;fill-rule:evenodd;stroke-width:0.96529984"
     inkscape:connector-curvature="0" />
</svg>
